<svg width="100" height="100" viewBox="0 0 100 100" fill="none" xmlns="http://www.w3.org/2000/svg">
<circle cx="50" cy="50" r="50" fill="black"/>
<path d="M68.3699 51.5127C68.7733 51.1183 69 50.5835 69 50.0258C69 49.4682 68.7733 48.9334 68.3699 48.539L56.1952 36.642C55.9967 36.4412 55.7592 36.281 55.4966 36.1707C55.234 36.0605 54.9516 36.0025 54.6659 36.0001C54.3801 35.9977 54.0967 36.0509 53.8322 36.1566C53.5677 36.2623 53.3274 36.4185 53.1254 36.616C52.9233 36.8134 52.7635 37.0482 52.6553 37.3067C52.5471 37.5652 52.4926 37.8421 52.4951 38.1213C52.4976 38.4006 52.557 38.6765 52.6697 38.9331C52.7825 39.1897 52.9465 39.4217 53.152 39.6157L61.653 47.9228L33.1521 47.9228C32.5814 47.9228 32.034 48.1444 31.6303 48.5388C31.2267 48.9332 31 49.4681 31 50.0258C31 50.5836 31.2267 51.1185 31.6303 51.5129C32.034 51.9073 32.5814 52.1289 33.1521 52.1289L61.653 52.1289L53.152 60.4359C52.76 60.8326 52.5431 61.3638 52.548 61.9152C52.5529 62.4666 52.7792 62.9941 53.1783 63.384C53.5773 63.774 54.1171 63.9951 54.6814 63.9999C55.2456 64.0047 55.7893 63.7927 56.1952 63.4097L68.3699 51.5127Z" fill="white"/>
</svg>
